<svg xmlns="http://www.w3.org/2000/svg" width="32" height="32" viewBox="-1 -1 35 35" fill="none">
<defs>
    <radialGradient cx="16" cy="24.7" r="8.25" gradientUnits="userSpaceOnUse" id="earth-ocean-favicon">
        <stop offset="0" stop-color="#5DADE2"/>
        <stop offset="1" stop-color="#2471A3"/>
    </radialGradient>
</defs>

<!-- Favicon: Bottom-aligned layered circles (Classic Earth theme, scaled to 32x32) -->
<g>
    <!-- Outer layer: Space transition -->
    <path d="M1.03,16.94c0,-8.78 7.12,-15.9 15.9,-15.9c8.78,0 15.9,7.12 15.9,15.9c0,8.78 -7.12,15.9 -15.9,15.9c-8.78,0 -15.9,-7.12 -15.9,-15.9zM16.94,32.84c7.46,0 13.5,-6.38 13.5,-14.26c0,-4.03 -1.58,-7.67 -4.12,-10.26c-2.43,-2.56 -5.74,-4.01 -9.39,-4.01c-7.46,0 -13.5,6.38 -13.5,14.26c0,7.88 6.04,14.26 13.5,14.26z" fill="#34495E"/>

    <!-- Third layer: Upper atmosphere -->
    <path d="M3.68,19.64c0,-7.32 5.93,-13.25 13.25,-13.25c7.32,0 13.25,5.93 13.25,13.25c0,7.32 -5.93,13.25 -13.25,13.25c-7.32,0 -13.25,-5.93 -13.25,-13.25zM16.93,32.89c6.22,0 11.26,-5.33 11.26,-11.89c0,-3.35 -1.32,-6.39 -3.43,-8.54c-2.02,-2.61 -4.77,-3.84 -7.82,-3.84c-6.22,0 -11.26,5.33 -11.26,11.89c0,6.56 5.04,11.89 11.26,11.89z" fill="#AED6F1"/>

    <!-- Second layer: Lower atmosphere -->
    <path d="M6.34,22.31c0,-5.85 4.78,-10.59 10.59,-10.59c5.85,0 10.59,4.78 10.59,10.59c0,5.85 -4.78,10.59 -10.59,10.59c-5.85,0 -10.59,-4.78 -10.59,-10.59zM16.93,32.9c4.97,0 9,-4.25 9,-9.5c0,-2.68 -1.05,-5.1 -2.74,-6.84c-1.62,-1.65 -3.83,-2.66 -6.26,-2.66c-4.97,0 -9,4.25 -9,9.5c0,5.25 4.03,9.5 9,9.5z" fill="#5DADE2"/>

    <!-- Center: Earth -->
    <circle cx="16.94" cy="24.7" r="8.25" fill="url(#earth-ocean-favicon)"/>
</g>
</svg>
