<?xml version="1.0" standalone="yes"?><svg xmlns="http://www.w3.org/2000/svg" width="278" height="68" viewBox="2 0 278 68" fill="none" style="zoom: 4;"><defs><radialGradient cx="32" cy="49.4" r="16.5" gradientUnits="userSpaceOnUse" id="earth-ocean-white"><stop offset="0" stop-color="#5DADE2"></stop><stop offset="1" stop-color="#2471A3"></stop></radialGradient></defs><!-- Icon: Bottom-aligned layered circles (Classic Earth theme, scaled to 64x64) --><g><!-- Outer layer: Space transition --><path d="M2.06,33.88 c0,-17.56 14.24,-31.81 31.81,-31.81 c17.56,0 31.81,14.24 31.81,31.81 c0,17.56 -14.24,31.81 -31.81,31.81 c-17.56,0 -31.81,-14.24 -31.81,-31.81 M33.88,65.69 c14.92,0 27.01,-12.77 27.01,-28.53 c0,-8.05 -3.15,-15.33 -8.23,-20.51 c-4.86,-5.12 -11.48,-8.02 -18.78,-8.02 c-14.92,0 -27.01,12.77 -27.01,28.53 c0,15.76 12.09,28.53 27.01,28.53 " fill="#34495E"></path><!-- Third layer: Upper atmosphere --><path d="M7.35,39.27 c0,-14.64 11.86,-26.5 26.5,-26.5 c14.64,0 26.5,11.86 26.5,26.5 c0,14.64 -11.86,26.5 -26.5,26.5 c-14.64,0 -26.5,-11.86 -26.5,-26.5 M33.85,65.77 c12.44,0 22.51,-10.66 22.51,-23.78 c0,-6.71 -2.63,-12.78 -6.86,-17.09 c-4.05,-5.23 -9.55,-7.68 -15.65,-7.68 c-12.44,0 -22.51,10.66 -22.51,23.78 c0,13.12 10.07,23.78 22.51,23.78 " fill="#AED6F1"></path><!-- Second layer: Lower atmosphere --><path d="M12.68,44.62 c0,-11.7 9.57,-21.18 21.18,-21.18 c11.7,0 21.18,9.57 21.18,21.18 c0,11.7 -9.57,21.18 -21.18,21.18 c-11.7,0 -21.18,-9.57 -21.18,-21.18 M33.85,65.8 c9.94,0 18,-8.51 18,-19 c0,-5.37 -2.09,-10.21 -5.48,-13.67 c-3.24,-3.31 -7.66,-5.33 -12.51,-5.33 c-9.94,0 -18,8.51 -18,19 c0,10.49 8.07,19 18,19 " fill="#5DADE2"></path>
<!-- Center: Earth --><circle cx="33.88" r="16.5" fill="url(#earth-ocean-white)" cy="49.4"></circle></g>
<!-- Text: HYPATIA (white) -->
<text x="71.75px" font-weight="500" font-family="Inter, -apple-system, BlinkMacSystemFont, sans-serif" y="35.5px" fill="#ffffff" font-size="32">ZERO</text>
<text x="71.75px" font-weight="400" font-family="Inter, -apple-system, BlinkMacSystemFont, sans-serif" y="55px" fill="#ffffff" font-size="18">.hypatia.earth</text></svg>
